# MagicaVoxel @ Ephtracy

# group
o 

# material
mtllib servis-1.mtl
usemtl palette

# normals
vn -1 0 0
vn 1 0 0
vn 0 0 1
vn 0 0 -1
vn 0 -1 0
vn 0 1 0

# texcoords
vt 0.962891 0.5
vt 0.966797 0.5
vt 0.986328 0.5

# verts
v -1.5 0 2.1
v -1.5 0 -2.2
v -1.5 0.1 2.1
v -1.5 0.1 -2.2
v 1.6 0 2.1
v 1.6 0 -2.2
v 1.6 0.1 2.1
v 1.6 0.1 -2.2
v -1.5 0 2.1
v -1.5 0.1 2.1
v 1.6 0 2.1
v 1.6 0.1 2.1
v -1.5 0 -2.2
v -1.5 0.1 -2.2
v 1.6 0 -2.2
v 1.6 0.1 -2.2
v -1.5 0 2.1
v 1.6 0 2.1
v -1.3 0 1.9
v -1.2 0 1.9
v -1 0 1.9
v 1.1 0 1.9
v 1.3 0 1.9
v 1.4 0 1.9
v -0.9 0 1.8
v 1 0 1.8
v -0.9 0 -1.7
v 1 0 -1.7
v -1 0 -1.8
v 1.1 0 -1.8
v -1.2 0 -2
v 1.3 0 -2
v -1.3 0 -2.1
v 1.4 0 -2.1
v -1.5 0 -2.2
v 1.6 0 -2.2
v -1.5 0.1 2.1
v 1.6 0.1 2.1
v -1.3 0.1 1.9
v -1.2 0.1 1.9
v -1 0.1 1.9
v 1.1 0.1 1.9
v 1.3 0.1 1.9
v 1.4 0.1 1.9
v -0.9 0.1 1.8
v 1 0.1 1.8
v -0.9 0.1 -1.7
v 1 0.1 -1.7
v -1 0.1 -1.8
v 1.1 0.1 -1.8
v -1.2 0.1 -2
v 1.3 0.1 -2
v -1.3 0.1 -2.1
v 1.4 0.1 -2.1
v -1.5 0.1 -2.2
v 1.6 0.1 -2.2

# faces
f 3/3/1 2/3/1 1/3/1
f 4/3/1 2/3/1 3/3/1
f 5/3/2 6/3/2 7/3/2
f 7/3/2 6/3/2 8/3/2
f 11/3/3 10/3/3 9/3/3
f 12/3/3 10/3/3 11/3/3
f 13/3/4 14/3/4 15/3/4
f 15/3/4 14/3/4 16/3/4
f 19/3/5 18/3/5 17/3/5
f 20/3/5 18/3/5 19/3/5
f 21/3/5 18/3/5 20/3/5
f 22/3/5 18/3/5 21/3/5
f 23/3/5 18/3/5 22/3/5
f 24/3/5 18/3/5 23/3/5
f 25/2/5 22/2/5 21/2/5
f 26/2/5 22/2/5 25/2/5
f 27/2/5 25/2/5 21/2/5
f 27/3/5 26/3/5 25/3/5
f 28/2/5 22/2/5 26/2/5
f 28/3/5 26/3/5 27/3/5
f 29/3/5 21/3/5 20/3/5
f 29/2/5 27/2/5 21/2/5
f 29/2/5 28/2/5 27/2/5
f 30/2/5 22/2/5 28/2/5
f 30/2/5 28/2/5 29/2/5
f 30/3/5 23/3/5 22/3/5
f 31/1/5 20/1/5 19/1/5
f 31/3/5 29/3/5 20/3/5
f 31/3/5 30/3/5 29/3/5
f 32/3/5 23/3/5 30/3/5
f 32/3/5 30/3/5 31/3/5
f 32/1/5 24/1/5 23/1/5
f 33/3/5 19/3/5 17/3/5
f 33/1/5 31/1/5 19/1/5
f 33/1/5 32/1/5 31/1/5
f 34/1/5 24/1/5 32/1/5
f 34/1/5 32/1/5 33/1/5
f 34/3/5 18/3/5 24/3/5
f 35/3/5 33/3/5 17/3/5
f 35/3/5 34/3/5 33/3/5
f 36/3/5 18/3/5 34/3/5
f 36/3/5 34/3/5 35/3/5
f 37/3/6 38/3/6 39/3/6
f 39/3/6 38/3/6 40/3/6
f 40/3/6 38/3/6 41/3/6
f 41/3/6 38/3/6 42/3/6
f 42/3/6 38/3/6 43/3/6
f 43/3/6 38/3/6 44/3/6
f 41/2/6 42/2/6 45/2/6
f 45/2/6 42/2/6 46/2/6
f 41/2/6 45/2/6 47/2/6
f 45/3/6 46/3/6 47/3/6
f 46/2/6 42/2/6 48/2/6
f 47/3/6 46/3/6 48/3/6
f 40/3/6 41/3/6 49/3/6
f 41/2/6 47/2/6 49/2/6
f 47/2/6 48/2/6 49/2/6
f 48/2/6 42/2/6 50/2/6
f 49/2/6 48/2/6 50/2/6
f 42/3/6 43/3/6 50/3/6
f 39/1/6 40/1/6 51/1/6
f 40/3/6 49/3/6 51/3/6
f 49/3/6 50/3/6 51/3/6
f 50/3/6 43/3/6 52/3/6
f 51/3/6 50/3/6 52/3/6
f 43/1/6 44/1/6 52/1/6
f 37/3/6 39/3/6 53/3/6
f 39/1/6 51/1/6 53/1/6
f 51/1/6 52/1/6 53/1/6
f 52/1/6 44/1/6 54/1/6
f 53/1/6 52/1/6 54/1/6
f 44/3/6 38/3/6 54/3/6
f 37/3/6 53/3/6 55/3/6
f 53/3/6 54/3/6 55/3/6
f 54/3/6 38/3/6 56/3/6
f 55/3/6 54/3/6 56/3/6
